<?xml version="1.0" encoding="UTF-8"?>
<svg id="Layer_1" xmlns="http://www.w3.org/2000/svg" version="1.1" viewBox="0 0 566.051 153.742">
  <!-- Generator: Adobe Illustrator 29.4.0, SVG Export Plug-In . SVG Version: 2.1.0 Build 152)  -->
  <g>
    <path d="M219.539,41.519c-15.633,0-25.412,13.887-25.412,31.243,0,20.729,9.78,32.211,26.34,32.211,10.997,0,20.704-10.436,20.969-19.374h-20.042v-15.687h37.912v49.218h-13.036l-1.692-11.787h-.265c-4.504,8.419-13.38,13.86-27.291,13.86-26.895,0-44.001-20.486-42.925-48.441,1.122-29.171,18.561-47.387,45.839-47.387,24.78,0,36.521,15.626,38.765,30.993h-18.906c-1.723-6.346-7.139-14.849-20.257-14.849Z" fill="#231f20"/>
    <path d="M314.108,98.657h19.499c-3.434,13.58-13.245,22.545-30.292,22.545-20.847,0-33.477-14.765-33.477-35.86,0-20.567,12.385-35.86,32.375-35.86,21.46,0,32.373,16.875,32.373,41.396h-46.273c0,9.492,7.645,15.561,14.636,15.561,6.744,0,9.932-4.486,11.158-7.783ZM289.459,78.092h25.508c0-9.361-5.273-13.436-12.753-13.436s-12.755,4.076-12.755,13.436Z" fill="#231f20"/>
    <path d="M440.687,72.98v45.575h-17.784v-38.856c0-10.143-3.941-13.568-10.898-13.568-6.226,0-10.131,4.084-10.131,13.436v38.987h-18.337v-38.856c0-10.143-3.144-13.568-10.101-13.568-6.104,0-10.131,4.084-10.131,13.436v38.987h-19.048V51.116h18.231v9.747h.244c3.294-6.19,10.949-11.38,20.346-11.38,8.178,0,13.916,4.4,16.356,11.38h.244c5.372-6.717,10.864-11.38,20.995-11.38,12.571,0,20.016,8.087,20.016,23.497Z" fill="#231f20"/>
    <path d="M474.875,50.582v67.973h-18.126V50.582h18.126Z" fill="#231f20"/>
    <path d="M474.875,26.409v17.074h-18.126v-17.074h18.126Z" fill="#231f20"/>
    <path d="M522.203,121.202c-21.509,0-34.465-14.897-34.465-35.86s12.956-35.86,34.465-35.86c21.385,0,34.341,14.897,34.341,35.86s-12.956,35.86-34.341,35.86ZM522.036,106.181c9.664,0,15.601-7.241,15.601-20.763s-5.937-20.763-15.601-20.763c-9.8,0-15.737,7.241-15.737,20.763s5.937,20.763,15.737,20.763Z" fill="#231f20"/>
  </g>
  <path d="M79.177,53.303h53.612V10.051H9.508v103.597h92.59v-30.302h18.13v47.525H52.371v-5.439h-11.525v18.259h91.942v-73.036h-42.993v29.914h-37.165v-47.266h26.547ZM40.328,39.965v60.604h-16.964V22.612h97.122v17.352H40.328Z" fill="#231f20"/>
</svg>